<svg width="55" height="49" viewBox="0 0 55 49" xmlns="http://www.w3.org/2000/svg"><title>logo</title><path d="M43.452 1.999c3.076 2.117 11.01 7.779 10.668 23.107-.289 12.902-5.31 17.897-7.977 20.123-5.19 4.333-15.281 3.852-21.24-.192 0 0 9.803-.193 9.9-5.392.095-5.199-10.862-1.155-10.862-1.155s-8.36.962-9.034-2.31c0 0 5.479-1.06 5.575-4.719.192-1.83-.478-3.271-2.595-5.392-1.826-1.83-4.901-1.83-5.959-1.251-1.057.577-.384.192-2.883 3.081-2.5 2.889-5.574 1.06-5.574 1.06L.203 26.647c10.284.962 7.593-5.682 7.88-7.8.169-1.235 2.006-6.37 7.113-2.503 11.821 8.954 12.402.927 12.302-1.252-.234-5.088-2.69-6.547-9.803-5.68-.113.013 1.826-7.125 7.4-5.488 3.713 1.09 10.669 6.065 12.783 1.444.48-1.926-4.517-4.14-4.517-4.14l-1.538-.77c3.555-.867 8.544-.585 11.629 1.54z" fill="#FFF" fill-rule="evenodd"/></svg>